<svg version="1.1" xmlns="http://www.w3.org/2000/svg" viewBox="0 0 147.33333333333317 146.9999999999999" width="147.33333333333317" height="146.9999999999999">
  <!-- svg-source:excalidraw -->
  
  <defs>
    <style class="style-fonts">
      @font-face {
        font-family: "Virgil";
        src: url("https://excalidraw.com/Virgil.woff2");
      }
      @font-face {
        font-family: "Cascadia";
        src: url("https://excalidraw.com/Cascadia.woff2");
      }
      @font-face {
        font-family: "Assistant";
        src: url("https://excalidraw.com/Assistant-Regular.woff2");
      }
    </style>
    
  </defs>
  <g stroke-opacity="0.7" fill-opacity="0.7" stroke-linecap="round" transform="translate(9.999999999999972 10) rotate(0 63.6666666666666 63.49999999999994)"><path d="M127.33 63.5 C127.33 66.05, 127.18 68.62, 126.87 71.15 C126.56 73.69, 126.1 76.22, 125.48 78.7 C124.87 81.17, 124.1 83.63, 123.2 86.02 C122.29 88.4, 121.23 90.75, 120.04 93.01 C118.85 95.27, 117.52 97.47, 116.06 99.57 C114.61 101.67, 113.02 103.7, 111.32 105.61 C109.63 107.52, 107.8 109.34, 105.89 111.03 C103.97 112.72, 101.94 114.31, 99.83 115.76 C97.73 117.21, 95.52 118.54, 93.25 119.73 C90.99 120.91, 88.64 121.97, 86.24 122.87 C83.85 123.78, 81.39 124.54, 78.9 125.15 C76.42 125.77, 73.88 126.23, 71.34 126.54 C68.8 126.84, 66.22 127, 63.67 127 C61.11 127, 58.53 126.84, 55.99 126.54 C53.45 126.23, 50.91 125.77, 48.43 125.15 C45.95 124.54, 43.48 123.78, 41.09 122.87 C38.7 121.97, 36.34 120.91, 34.08 119.73 C31.81 118.54, 29.61 117.21, 27.5 115.76 C25.39 114.31, 23.36 112.72, 21.45 111.03 C19.53 109.34, 17.71 107.52, 16.01 105.61 C14.32 103.7, 12.72 101.67, 11.27 99.57 C9.82 97.47, 8.48 95.27, 7.29 93.01 C6.1 90.75, 5.04 88.4, 4.14 86.02 C3.23 83.63, 2.46 81.17, 1.85 78.7 C1.24 76.22, 0.77 73.69, 0.46 71.15 C0.16 68.62, 0 66.05, 0 63.5 C0 60.95, 0.16 58.38, 0.46 55.85 C0.77 53.31, 1.24 50.78, 1.85 48.3 C2.46 45.83, 3.23 43.37, 4.14 40.98 C5.04 38.6, 6.1 36.25, 7.29 33.99 C8.48 31.73, 9.82 29.53, 11.27 27.43 C12.72 25.33, 14.32 23.3, 16.01 21.39 C17.71 19.48, 19.53 17.66, 21.45 15.97 C23.36 14.28, 25.39 12.69, 27.5 11.24 C29.61 9.79, 31.81 8.46, 34.08 7.27 C36.34 6.09, 38.7 5.03, 41.09 4.13 C43.48 3.22, 45.95 2.46, 48.43 1.85 C50.91 1.23, 53.45 0.77, 55.99 0.46 C58.53 0.16, 61.11 0, 63.67 0 C66.22 0, 68.8 0.16, 71.34 0.46 C73.88 0.77, 76.42 1.23, 78.9 1.85 C81.39 2.46, 83.85 3.22, 86.24 4.13 C88.64 5.03, 90.99 6.09, 93.25 7.27 C95.52 8.46, 97.73 9.79, 99.83 11.24 C101.94 12.69, 103.97 14.28, 105.89 15.97 C107.8 17.66, 109.63 19.48, 111.32 21.39 C113.02 23.3, 114.61 25.33, 116.06 27.43 C117.52 29.53, 118.85 31.73, 120.04 33.99 C121.23 36.25, 122.29 38.6, 123.2 40.98 C124.1 43.37, 124.87 45.83, 125.48 48.3 C126.1 50.78, 126.56 53.31, 126.87 55.85 C127.18 58.38, 127.33 60.95, 127.33 63.5" stroke="none" stroke-width="0" fill="#69db7c"></path><path d="M127.33 63.5 C127.33 66.05, 127.18 68.62, 126.87 71.15 C126.56 73.69, 126.1 76.22, 125.48 78.7 C124.87 81.17, 124.1 83.63, 123.2 86.02 C122.29 88.4, 121.23 90.75, 120.04 93.01 C118.85 95.27, 117.52 97.47, 116.06 99.57 C114.61 101.67, 113.02 103.7, 111.32 105.61 C109.63 107.52, 107.8 109.34, 105.89 111.03 C103.97 112.72, 101.94 114.31, 99.83 115.76 C97.73 117.21, 95.52 118.54, 93.25 119.73 C90.99 120.91, 88.64 121.97, 86.24 122.87 C83.85 123.78, 81.39 124.54, 78.9 125.15 C76.42 125.77, 73.88 126.23, 71.34 126.54 C68.8 126.84, 66.22 127, 63.67 127 C61.11 127, 58.53 126.84, 55.99 126.54 C53.45 126.23, 50.91 125.77, 48.43 125.15 C45.95 124.54, 43.48 123.78, 41.09 122.87 C38.7 121.97, 36.34 120.91, 34.08 119.73 C31.81 118.54, 29.61 117.21, 27.5 115.76 C25.39 114.31, 23.36 112.72, 21.45 111.03 C19.53 109.34, 17.71 107.52, 16.01 105.61 C14.32 103.7, 12.72 101.67, 11.27 99.57 C9.82 97.47, 8.48 95.27, 7.29 93.01 C6.1 90.75, 5.04 88.4, 4.14 86.02 C3.23 83.63, 2.46 81.17, 1.85 78.7 C1.24 76.22, 0.77 73.69, 0.46 71.15 C0.16 68.62, 0 66.05, 0 63.5 C0 60.95, 0.16 58.38, 0.46 55.85 C0.77 53.31, 1.24 50.78, 1.85 48.3 C2.46 45.83, 3.23 43.37, 4.14 40.98 C5.04 38.6, 6.1 36.25, 7.29 33.99 C8.48 31.73, 9.82 29.53, 11.27 27.43 C12.72 25.33, 14.32 23.3, 16.01 21.39 C17.71 19.48, 19.53 17.66, 21.45 15.97 C23.36 14.28, 25.39 12.69, 27.5 11.24 C29.61 9.79, 31.81 8.46, 34.08 7.27 C36.34 6.09, 38.7 5.03, 41.09 4.13 C43.48 3.22, 45.95 2.46, 48.43 1.85 C50.91 1.23, 53.45 0.77, 55.99 0.46 C58.53 0.16, 61.11 0, 63.67 0 C66.22 0, 68.8 0.16, 71.34 0.46 C73.88 0.77, 76.42 1.23, 78.9 1.85 C81.39 2.46, 83.85 3.22, 86.24 4.13 C88.64 5.03, 90.99 6.09, 93.25 7.27 C95.52 8.46, 97.73 9.79, 99.83 11.24 C101.94 12.69, 103.97 14.28, 105.89 15.97 C107.8 17.66, 109.63 19.48, 111.32 21.39 C113.02 23.3, 114.61 25.33, 116.06 27.43 C117.52 29.53, 118.85 31.73, 120.04 33.99 C121.23 36.25, 122.29 38.6, 123.2 40.98 C124.1 43.37, 124.87 45.83, 125.48 48.3 C126.1 50.78, 126.56 53.31, 126.87 55.85 C127.18 58.38, 127.33 60.95, 127.33 63.5" stroke="#fa5252" stroke-width="2.5" fill="none" stroke-dasharray="8 10"></path></g><g stroke-linecap="round"><g transform="translate(29.787674653998522 95.80696463796346) rotate(0 20.66775244299673 14.071661237785008)"><path d="M0 0 C6.89 4.69, 34.45 23.45, 41.34 28.14 M0 0 C6.89 4.69, 34.45 23.45, 41.34 28.14" stroke="#365a54" stroke-width="4" fill="none"></path></g></g><mask></mask><g stroke-linecap="round"><g transform="translate(118.83490592435678 98.88514053372899) rotate(0 -23.08631921824103 12.752442996742673)"><path d="M0 0 C-7.7 4.25, -38.48 21.25, -46.17 25.5 M0 0 C-7.7 4.25, -38.48 21.25, -46.17 25.5" stroke="#365a54" stroke-width="4" fill="none"></path></g></g><mask></mask><g stroke-linecap="round"><g transform="translate(71.56291895367278 124.39002652721433) rotate(0 0.4397394136807833 -26.164495114006513)"><path d="M0 0 C0.15 -8.72, 0.73 -43.61, 0.88 -52.33 M0 0 C0.15 -8.72, 0.73 -43.61, 0.88 -52.33" stroke="#365a54" stroke-width="1" fill="none"></path></g></g><mask></mask><g stroke-linecap="round"><g transform="translate(119.66083623725783 102.79492239139353) rotate(0 0.5912545651959249 -26.413976902576252)"><path d="M0 0 C0.2 -8.8, 0.99 -44.02, 1.18 -52.83 M0 0 C0.2 -8.8, 0.99 -44.02, 1.18 -52.83" stroke="#365a54" stroke-width="4" fill="none"></path></g></g><mask></mask><g stroke-linecap="round"><g transform="translate(28.575553441877332 98.61172231242801) rotate(0 0 -25.724755700325716)"><path d="M0 0 C0 -8.57, 0 -42.87, 0 -51.45 M0 0 C0 -8.57, 0 -42.87, 0 -51.45" stroke="#365a54" stroke-width="4" fill="none"></path></g></g><mask></mask><g stroke-linecap="round"><g transform="translate(119.49451504487797 48.53497766727946) rotate(0 -23.30618892508143 11.213355048859938)"><path d="M0 0 C-7.77 3.74, -38.84 18.69, -46.61 22.43 M0 0 C-7.77 3.74, -38.84 18.69, -46.61 22.43" stroke="#365a54" stroke-width="1" fill="none"></path></g></g><mask></mask><g stroke-linecap="round"><g transform="translate(34.214680872535695 93.1389160741495) rotate(0 17.877800809396916 -10.319070180633702)"><path d="M0 0 C5.96 -3.44, 29.8 -17.2, 35.76 -20.64 M0 0 C5.96 -3.44, 29.8 -17.2, 35.76 -20.64" stroke="#5a3a2d" stroke-width="2" fill="none"></path></g></g><mask></mask><g stroke-linecap="round"><g transform="translate(35.12377178162657 93.88168579086044) rotate(0 17.506415951041348 11.638288421676037)"><path d="M0 0 C5.84 3.88, 29.18 19.4, 35.01 23.28 M0 0 C5.84 3.88, 29.18 19.4, 35.01 23.28" stroke="#5a3a2d" stroke-width="2" fill="none"></path></g></g><mask></mask><g stroke-linecap="round"><g transform="translate(33.72914143911362 92.48774639692112) rotate(0 -2.842170943040401e-14 -20.67688283486322)"><path d="M0 0 C0 -6.89, 0 -34.46, 0 -41.35 M0 0 C0 -6.89, 0 -34.46, 0 -41.35" stroke="#5a3a2d" stroke-width="2" fill="none"></path></g></g><mask></mask><g stroke-linecap="round"><g transform="translate(73.89832513272731 117.34852025932372) rotate(0 20.364722139966375 -10.5389398874741)"><path d="M0 0 C6.79 -3.51, 33.94 -17.56, 40.73 -21.08 M0 0 C6.79 -3.51, 33.94 -17.56, 40.73 -21.08" stroke="#5a3a2d" stroke-width="2" fill="none"></path></g></g><mask></mask><g stroke-linecap="round"><g transform="translate(74.77840325221902 72.82654386438315) rotate(0 20.038953988465394 11.83108422522102)"><path d="M0 0 C6.68 3.94, 33.4 19.72, 40.08 23.66 M0 0 C6.68 3.94, 33.4 19.72, 40.08 23.66" stroke="#5a3a2d" stroke-width="2" fill="none"></path></g></g><mask></mask><g stroke-linecap="round"><g transform="translate(72.27607658865455 68.35286336464395) rotate(0 0.6060606060605664 -20.97991313789356)"><path d="M0 0 C0.2 -6.99, 1.01 -34.97, 1.21 -41.96 M0 0 C0.2 -6.99, 1.01 -34.97, 1.21 -41.96" stroke="#5a3a2d" stroke-width="2" fill="none"></path></g></g><mask></mask><g stroke-linecap="round"><g transform="translate(36.08073555617992 47.940268359215224) rotate(0 18.332346263942327 -10.622100483664013)"><path d="M0 0 C6.11 -3.54, 30.55 -17.7, 36.66 -21.24 M0 0 C6.11 -3.54, 30.55 -17.7, 36.66 -21.24" stroke="#5a3a2d" stroke-width="2" fill="none"></path></g></g><mask></mask><g stroke-linecap="round"><g transform="translate(28.575553441877332 99.60397381770883) rotate(0 21.603617609317922 12.393026354752749)"><path d="M0 0 C7.2 4.13, 36.01 20.66, 43.21 24.79 M0 0 C7.2 4.13, 36.01 20.66, 43.21 24.79" stroke="#365a54" stroke-width="4" fill="none"></path></g></g><mask></mask><g stroke-linecap="round"><g transform="translate(118.55679678590641 102.84261755544765) rotate(0 -23.00315862205109 10.247877800809391)"><path d="M0 0 C-7.67 3.42, -38.34 17.08, -46.01 20.5 M0 0 C-7.67 3.42, -38.34 17.08, -46.01 20.5" stroke="#365a54" stroke-width="4" fill="none"></path></g></g><mask></mask><g stroke-linecap="round"><g transform="translate(38.1572136638471 52.834998537848264) rotate(0 14.696969696969688 -8.636363636363626)"><path d="M0 0 C4.9 -2.88, 24.49 -14.39, 29.39 -17.27 M0 0 C4.9 -2.88, 24.49 -14.39, 29.39 -17.27" stroke="#5a3a2d" stroke-width="1" fill="none"></path></g></g><mask></mask><g stroke-linecap="round"><g transform="translate(39.520850027483476 84.5016652045149) rotate(0 14.393939393939377 -8.333333333333343)"><path d="M0 0 C4.8 -2.78, 23.99 -13.89, 28.79 -16.67 M0 0 C4.8 -2.78, 23.99 -13.89, 28.79 -16.67" stroke="#5a3a2d" stroke-width="1" fill="none"></path></g></g><mask></mask><g stroke-linecap="round"><g transform="translate(38.1572136638471 53.13802884087852) rotate(0 0.15151515151515582 15.75757575757575)"><path d="M0 0 C0.05 5.25, 0.25 26.26, 0.3 31.52 M0 0 C0.05 5.25, 0.25 26.26, 0.3 31.52" stroke="#5a3a2d" stroke-width="1" fill="none"></path></g></g><mask></mask><g stroke-linecap="round"><g transform="translate(68.61175911839254 35.56227126512101) rotate(0 -0.15151515151515582 16.060606060606034)"><path d="M0 0 C-0.05 5.35, -0.25 26.77, -0.3 32.12 M0 0 C-0.05 5.35, -0.25 26.77, -0.3 32.12" stroke="#5a3a2d" stroke-width="1" fill="none"></path></g></g><mask></mask><g stroke-linecap="round"><g transform="translate(29.684772669989087 46.43918258288505) rotate(0 20.939073141841845 12.151317737636958)"><path d="M0 0 C6.98 4.05, 34.9 20.25, 41.88 24.3 M0 0 C6.98 4.05, 34.9 20.25, 41.88 24.3" stroke="#365a54" stroke-width="1" fill="none"></path></g></g><mask></mask><g stroke-opacity="0.1" fill-opacity="0.1" transform="translate(56.666666666666714 11.333333333333314) rotate(0 0.00005000000000165983 0.00004999999998744897)" stroke="none"><path fill="#b2f2bb" d="M 3.14,-3.14 Q 3.14,-3.14 3.55,-2.55 3.97,-1.97 4.18,-1.28 4.40,-0.59 4.38,0.11 4.36,0.83 4.11,1.51 3.86,2.18 3.41,2.74 2.96,3.30 2.36,3.69 1.75,4.08 1.05,4.25 0.36,4.42 -0.35,4.36 -1.07,4.31 -1.73,4.02 -2.39,3.74 -2.92,3.26 -3.46,2.78 -3.81,2.15 -4.16,1.53 -4.30,0.82 -4.43,0.11 -4.34,-0.59 -4.24,-1.30 -3.92,-1.94 -3.60,-2.59 -3.09,-3.09 -2.59,-3.60 -1.94,-3.92 -1.30,-4.24 -0.59,-4.34 0.12,-4.43 0.82,-4.30 1.53,-4.16 2.15,-3.81 2.78,-3.46 3.26,-2.92 3.74,-2.39 4.02,-1.73 4.31,-1.07 4.36,-0.35 4.42,0.36 4.25,1.05 4.07,1.75 3.69,2.36 3.30,2.96 2.74,3.41 2.18,3.86 1.51,4.11 0.83,4.36 0.11,4.38 -0.60,4.40 -1.28,4.18 -1.97,3.97 -2.55,3.55 -3.14,3.13 -3.14,3.14 -3.14,3.14 -3.47,2.71 -3.80,2.29 -4.02,1.80 -4.24,1.32 -4.33,0.79 -4.43,0.26 -4.40,-0.26 -4.36,-0.80 -4.20,-1.31 -4.04,-1.82 -3.77,-2.28 -3.49,-2.73 -3.11,-3.11 -2.73,-3.49 -2.28,-3.77 -1.82,-4.05 -1.31,-4.20 -0.80,-4.36 -0.26,-4.40 0.26,-4.43 0.79,-4.33 1.32,-4.24 1.80,-4.02 2.29,-3.80 2.71,-3.47 3.14,-3.14 3.14,-3.14 L 3.14,-3.14 Z"></path></g></svg>